<?xml version="1.0" encoding="UTF-8" standalone="no"?>
<!DOCTYPE svg PUBLIC "-//W3C//DTD SVG 1.1//EN"
 "http://www.w3.org/Graphics/SVG/1.1/DTD/svg11.dtd">
<!-- Generated by graphviz version 2.44.1 (20200629.0846)
 -->
<!-- Title: dependencies Pages: 1 -->
<svg width="619pt" height="211pt"
 viewBox="0.00 0.00 619.00 211.00" xmlns="http://www.w3.org/2000/svg" xmlns:xlink="http://www.w3.org/1999/xlink">
<g id="graph0" class="graph" transform="scale(1 1) rotate(0) translate(4 207)">
<title>dependencies</title>
<polygon fill="white" stroke="transparent" points="-4,4 -4,-207 615,-207 615,4 -4,4"/>
<text text-anchor="start" x="284.51" y="-42.4" font-family="sans-serif" font-weight="bold" font-size="14.00">Legend</text>
<polygon fill="#ffffb3" stroke="transparent" points="71.5,-10 71.5,-30 91.5,-30 91.5,-10 71.5,-10"/>
<text text-anchor="start" x="95.13" y="-15.4" font-family="sans-serif" font-size="14.00"> &#160;Declarations</text>
<polygon fill="#8dd3c7" stroke="transparent" points="184.5,-10 184.5,-30 204.5,-30 204.5,-10 184.5,-10"/>
<text text-anchor="start" x="208.23" y="-15.4" font-family="sans-serif" font-size="14.00"> &#160;Module</text>
<polygon fill="#80b1d3" stroke="transparent" points="270.5,-10 270.5,-30 290.5,-30 290.5,-10 270.5,-10"/>
<text text-anchor="start" x="294.28" y="-15.4" font-family="sans-serif" font-size="14.00"> &#160;Bootstrap</text>
<polygon fill="#fdb462" stroke="transparent" points="367.5,-10 367.5,-30 387.5,-30 387.5,-10 367.5,-10"/>
<text text-anchor="start" x="391.17" y="-15.4" font-family="sans-serif" font-size="14.00"> &#160;Providers</text>
<polygon fill="#fb8072" stroke="transparent" points="463.5,-10 463.5,-30 483.5,-30 483.5,-10 463.5,-10"/>
<text text-anchor="start" x="487.23" y="-15.4" font-family="sans-serif" font-size="14.00"> &#160;Exports</text>
<g id="clust1" class="cluster">
<title>cluster_AppModule</title>
<polygon fill="none" stroke="black" stroke-dasharray="1,5" points="8,-70 8,-195 603,-195 603,-70 8,-70"/>
</g>
<g id="clust3" class="cluster">
<title>cluster_AppModule_imports</title>
<polygon fill="none" stroke="black" points="16,-78 16,-130 595,-130 595,-78 16,-78"/>
</g>
<!-- AnimalsModule -->
<g id="node1" class="node">
<title>AnimalsModule</title>
<polygon fill="#8dd3c7" stroke="black" points="587.49,-122 584.49,-126 563.49,-126 560.49,-122 480.51,-122 480.51,-86 587.49,-86 587.49,-122"/>
<text text-anchor="middle" x="534" y="-99.8" font-family="Times,serif" font-size="14.00">AnimalsModule</text>
</g>
<!-- AppModule -->
<g id="node6" class="node">
<title>AppModule</title>
<polygon fill="#8dd3c7" stroke="black" points="350.66,-187 347.66,-191 326.66,-191 323.66,-187 267.34,-187 267.34,-151 350.66,-151 350.66,-187"/>
<text text-anchor="middle" x="309" y="-164.8" font-family="Times,serif" font-size="14.00">AppModule</text>
</g>
<!-- AnimalsModule&#45;&gt;AppModule -->
<g id="edge1" class="edge">
<title>AnimalsModule&#45;&gt;AppModule</title>
<path fill="none" stroke="black" d="M534,-122.28C534,-143.32 534,-175 534,-175 534,-175 360.79,-175 360.79,-175"/>
<polygon fill="black" stroke="black" points="360.79,-171.5 350.79,-175 360.79,-178.5 360.79,-171.5"/>
</g>
<!-- AuthModule -->
<g id="node2" class="node">
<title>AuthModule</title>
<polygon fill="#8dd3c7" stroke="black" points="462.55,-122 459.55,-126 438.55,-126 435.55,-122 375.45,-122 375.45,-86 462.55,-86 462.55,-122"/>
<text text-anchor="middle" x="419" y="-99.8" font-family="Times,serif" font-size="14.00">AuthModule</text>
</g>
<!-- AuthModule&#45;&gt;AppModule -->
<g id="edge2" class="edge">
<title>AuthModule&#45;&gt;AppModule</title>
<path fill="none" stroke="black" d="M419,-122.02C419,-139.37 419,-163 419,-163 419,-163 360.9,-163 360.9,-163"/>
<polygon fill="black" stroke="black" points="360.9,-159.5 350.9,-163 360.9,-166.5 360.9,-159.5"/>
</g>
<!-- HealthModule -->
<g id="node3" class="node">
<title>HealthModule</title>
<polygon fill="#8dd3c7" stroke="black" points="357.37,-122 354.37,-126 333.37,-126 330.37,-122 260.63,-122 260.63,-86 357.37,-86 357.37,-122"/>
<text text-anchor="middle" x="309" y="-99.8" font-family="Times,serif" font-size="14.00">HealthModule</text>
</g>
<!-- HealthModule&#45;&gt;AppModule -->
<g id="edge3" class="edge">
<title>HealthModule&#45;&gt;AppModule</title>
<path fill="none" stroke="black" d="M309,-122.11C309,-122.11 309,-140.99 309,-140.99"/>
<polygon fill="black" stroke="black" points="305.5,-140.99 309,-150.99 312.5,-140.99 305.5,-140.99"/>
</g>
<!-- ProductsModule -->
<g id="node4" class="node">
<title>ProductsModule</title>
<polygon fill="#8dd3c7" stroke="black" points="242.04,-122 239.04,-126 218.04,-126 215.04,-122 133.96,-122 133.96,-86 242.04,-86 242.04,-122"/>
<text text-anchor="middle" x="188" y="-99.8" font-family="Times,serif" font-size="14.00">ProductsModule</text>
</g>
<!-- ProductsModule&#45;&gt;AppModule -->
<g id="edge4" class="edge">
<title>ProductsModule&#45;&gt;AppModule</title>
<path fill="none" stroke="black" d="M188,-122.02C188,-139.37 188,-163 188,-163 188,-163 257.02,-163 257.02,-163"/>
<polygon fill="black" stroke="black" points="257.02,-166.5 267.02,-163 257.02,-159.5 257.02,-166.5"/>
</g>
<!-- UsersModule -->
<g id="node5" class="node">
<title>UsersModule</title>
<polygon fill="#8dd3c7" stroke="black" points="115.92,-122 112.92,-126 91.92,-126 88.92,-122 24.08,-122 24.08,-86 115.92,-86 115.92,-122"/>
<text text-anchor="middle" x="70" y="-99.8" font-family="Times,serif" font-size="14.00">UsersModule</text>
</g>
<!-- UsersModule&#45;&gt;AppModule -->
<g id="edge5" class="edge">
<title>UsersModule&#45;&gt;AppModule</title>
<path fill="none" stroke="black" d="M70,-122.28C70,-143.32 70,-175 70,-175 70,-175 257.1,-175 257.1,-175"/>
<polygon fill="black" stroke="black" points="257.1,-178.5 267.1,-175 257.1,-171.5 257.1,-178.5"/>
</g>
</g>
</svg>
