<?xml version="1.0" encoding="UTF-8" standalone="no"?>
<!DOCTYPE svg PUBLIC "-//W3C//DTD SVG 1.1//EN"
 "http://www.w3.org/Graphics/SVG/1.1/DTD/svg11.dtd">
<!-- Generated by graphviz version 2.44.1 (20200629.0846)
 -->
<!-- Title: dependencies Pages: 1 -->
<svg width="730pt" height="211pt"
 viewBox="0.00 0.00 730.00 211.00" xmlns="http://www.w3.org/2000/svg" xmlns:xlink="http://www.w3.org/1999/xlink">
<g id="graph0" class="graph" transform="scale(1 1) rotate(0) translate(4 207)">
<title>dependencies</title>
<polygon fill="white" stroke="transparent" points="-4,4 -4,-207 726,-207 726,4 -4,4"/>
<text text-anchor="start" x="340.01" y="-42.4" font-family="sans-serif" font-weight="bold" font-size="14.00">Legend</text>
<polygon fill="#ffffb3" stroke="transparent" points="127,-10 127,-30 147,-30 147,-10 127,-10"/>
<text text-anchor="start" x="150.63" y="-15.4" font-family="sans-serif" font-size="14.00"> &#160;Declarations</text>
<polygon fill="#8dd3c7" stroke="transparent" points="240,-10 240,-30 260,-30 260,-10 240,-10"/>
<text text-anchor="start" x="263.73" y="-15.4" font-family="sans-serif" font-size="14.00"> &#160;Module</text>
<polygon fill="#80b1d3" stroke="transparent" points="326,-10 326,-30 346,-30 346,-10 326,-10"/>
<text text-anchor="start" x="349.78" y="-15.4" font-family="sans-serif" font-size="14.00"> &#160;Bootstrap</text>
<polygon fill="#fdb462" stroke="transparent" points="423,-10 423,-30 443,-30 443,-10 423,-10"/>
<text text-anchor="start" x="446.67" y="-15.4" font-family="sans-serif" font-size="14.00"> &#160;Providers</text>
<polygon fill="#fb8072" stroke="transparent" points="519,-10 519,-30 539,-30 539,-10 519,-10"/>
<text text-anchor="start" x="542.73" y="-15.4" font-family="sans-serif" font-size="14.00"> &#160;Exports</text>
<g id="clust1" class="cluster">
<title>cluster_AppModule</title>
<polygon fill="none" stroke="black" stroke-dasharray="1,5" points="8,-70 8,-195 714,-195 714,-70 8,-70"/>
</g>
<g id="clust3" class="cluster">
<title>cluster_AppModule_imports</title>
<polygon fill="none" stroke="black" points="16,-78 16,-130 706,-130 706,-78 16,-78"/>
</g>
<!-- AnimalsModule -->
<g id="node1" class="node">
<title>AnimalsModule</title>
<polygon fill="#8dd3c7" stroke="black" points="698.49,-122 695.49,-126 674.49,-126 671.49,-122 591.51,-122 591.51,-86 698.49,-86 698.49,-122"/>
<text text-anchor="middle" x="645" y="-99.8" font-family="Times,serif" font-size="14.00">AnimalsModule</text>
</g>
<!-- AppModule -->
<g id="node7" class="node">
<title>AppModule</title>
<polygon fill="#8dd3c7" stroke="black" points="404.66,-187 401.66,-191 380.66,-191 377.66,-187 321.34,-187 321.34,-151 404.66,-151 404.66,-187"/>
<text text-anchor="middle" x="363" y="-164.8" font-family="Times,serif" font-size="14.00">AppModule</text>
</g>
<!-- AnimalsModule&#45;&gt;AppModule -->
<g id="edge1" class="edge">
<title>AnimalsModule&#45;&gt;AppModule</title>
<path fill="none" stroke="black" d="M645,-122.28C645,-143.32 645,-175 645,-175 645,-175 414.91,-175 414.91,-175"/>
<polygon fill="black" stroke="black" points="414.91,-171.5 404.91,-175 414.91,-178.5 414.91,-171.5"/>
</g>
<!-- AuthModule -->
<g id="node2" class="node">
<title>AuthModule</title>
<polygon fill="#8dd3c7" stroke="black" points="573.55,-122 570.55,-126 549.55,-126 546.55,-122 486.45,-122 486.45,-86 573.55,-86 573.55,-122"/>
<text text-anchor="middle" x="530" y="-99.8" font-family="Times,serif" font-size="14.00">AuthModule</text>
</g>
<!-- AuthModule&#45;&gt;AppModule -->
<g id="edge2" class="edge">
<title>AuthModule&#45;&gt;AppModule</title>
<path fill="none" stroke="black" d="M530,-122.02C530,-139.37 530,-163 530,-163 530,-163 414.71,-163 414.71,-163"/>
<polygon fill="black" stroke="black" points="414.71,-159.5 404.71,-163 414.71,-166.5 414.71,-159.5"/>
</g>
<!-- HealthModule -->
<g id="node3" class="node">
<title>HealthModule</title>
<polygon fill="#8dd3c7" stroke="black" points="468.37,-122 465.37,-126 444.37,-126 441.37,-122 371.63,-122 371.63,-86 468.37,-86 468.37,-122"/>
<text text-anchor="middle" x="420" y="-99.8" font-family="Times,serif" font-size="14.00">HealthModule</text>
</g>
<!-- HealthModule&#45;&gt;AppModule -->
<g id="edge3" class="edge">
<title>HealthModule&#45;&gt;AppModule</title>
<path fill="none" stroke="black" d="M388.2,-122.11C388.2,-122.11 388.2,-140.99 388.2,-140.99"/>
<polygon fill="black" stroke="black" points="384.7,-140.99 388.2,-150.99 391.7,-140.99 384.7,-140.99"/>
</g>
<!-- MicroModule -->
<g id="node4" class="node">
<title>MicroModule</title>
<polygon fill="#8dd3c7" stroke="black" points="353.76,-122 350.76,-126 329.76,-126 326.76,-122 260.24,-122 260.24,-86 353.76,-86 353.76,-122"/>
<text text-anchor="middle" x="307" y="-99.8" font-family="Times,serif" font-size="14.00">MicroModule</text>
</g>
<!-- MicroModule&#45;&gt;AppModule -->
<g id="edge4" class="edge">
<title>MicroModule&#45;&gt;AppModule</title>
<path fill="none" stroke="black" d="M337.53,-122.11C337.53,-122.11 337.53,-140.99 337.53,-140.99"/>
<polygon fill="black" stroke="black" points="334.03,-140.99 337.53,-150.99 341.03,-140.99 334.03,-140.99"/>
</g>
<!-- ProductsModule -->
<g id="node5" class="node">
<title>ProductsModule</title>
<polygon fill="#8dd3c7" stroke="black" points="242.04,-122 239.04,-126 218.04,-126 215.04,-122 133.96,-122 133.96,-86 242.04,-86 242.04,-122"/>
<text text-anchor="middle" x="188" y="-99.8" font-family="Times,serif" font-size="14.00">ProductsModule</text>
</g>
<!-- ProductsModule&#45;&gt;AppModule -->
<g id="edge5" class="edge">
<title>ProductsModule&#45;&gt;AppModule</title>
<path fill="none" stroke="black" d="M188,-122.02C188,-139.37 188,-163 188,-163 188,-163 311.08,-163 311.08,-163"/>
<polygon fill="black" stroke="black" points="311.08,-166.5 321.08,-163 311.08,-159.5 311.08,-166.5"/>
</g>
<!-- UsersModule -->
<g id="node6" class="node">
<title>UsersModule</title>
<polygon fill="#8dd3c7" stroke="black" points="115.92,-122 112.92,-126 91.92,-126 88.92,-122 24.08,-122 24.08,-86 115.92,-86 115.92,-122"/>
<text text-anchor="middle" x="70" y="-99.8" font-family="Times,serif" font-size="14.00">UsersModule</text>
</g>
<!-- UsersModule&#45;&gt;AppModule -->
<g id="edge6" class="edge">
<title>UsersModule&#45;&gt;AppModule</title>
<path fill="none" stroke="black" d="M70,-122.28C70,-143.32 70,-175 70,-175 70,-175 311.33,-175 311.33,-175"/>
<polygon fill="black" stroke="black" points="311.33,-178.5 321.33,-175 311.33,-171.5 311.33,-178.5"/>
</g>
</g>
</svg>
