<?xml version="1.0" encoding="UTF-8" standalone="no"?>
<!DOCTYPE svg PUBLIC "-//W3C//DTD SVG 1.1//EN"
 "http://www.w3.org/Graphics/SVG/1.1/DTD/svg11.dtd">
<!-- Generated by graphviz version 2.44.1 (20200629.0846)
 -->
<!-- Title: dependencies Pages: 1 -->
<svg width="1221pt" height="298pt"
 viewBox="0.00 0.00 1221.00 298.00" xmlns="http://www.w3.org/2000/svg" xmlns:xlink="http://www.w3.org/1999/xlink">
<g id="graph0" class="graph" transform="scale(1 1) rotate(0) translate(4 294)">
<title>dependencies</title>
<polygon fill="white" stroke="transparent" points="-4,4 -4,-294 1217,-294 1217,4 -4,4"/>
<text text-anchor="start" x="585.51" y="-42.4" font-family="sans-serif" font-weight="bold" font-size="14.00">Legend</text>
<polygon fill="#ffffb3" stroke="transparent" points="372.5,-10 372.5,-30 392.5,-30 392.5,-10 372.5,-10"/>
<text text-anchor="start" x="396.13" y="-15.4" font-family="sans-serif" font-size="14.00"> &#160;Declarations</text>
<polygon fill="#8dd3c7" stroke="transparent" points="485.5,-10 485.5,-30 505.5,-30 505.5,-10 485.5,-10"/>
<text text-anchor="start" x="509.23" y="-15.4" font-family="sans-serif" font-size="14.00"> &#160;Module</text>
<polygon fill="#80b1d3" stroke="transparent" points="571.5,-10 571.5,-30 591.5,-30 591.5,-10 571.5,-10"/>
<text text-anchor="start" x="595.28" y="-15.4" font-family="sans-serif" font-size="14.00"> &#160;Bootstrap</text>
<polygon fill="#fdb462" stroke="transparent" points="668.5,-10 668.5,-30 688.5,-30 688.5,-10 668.5,-10"/>
<text text-anchor="start" x="692.17" y="-15.4" font-family="sans-serif" font-size="14.00"> &#160;Providers</text>
<polygon fill="#fb8072" stroke="transparent" points="764.5,-10 764.5,-30 784.5,-30 784.5,-10 764.5,-10"/>
<text text-anchor="start" x="788.23" y="-15.4" font-family="sans-serif" font-size="14.00"> &#160;Exports</text>
<g id="clust1" class="cluster">
<title>cluster_AnimalsModule</title>
<polygon fill="none" stroke="black" stroke-dasharray="1,5" points="8,-70 8,-206 186,-206 186,-70 8,-70"/>
</g>
<g id="clust6" class="cluster">
<title>cluster_AnimalsModule_providers</title>
<polygon fill="none" stroke="black" points="16,-78 16,-130 178,-130 178,-78 16,-78"/>
</g>
<g id="clust7" class="cluster">
<title>cluster_AppModule</title>
<polygon fill="none" stroke="black" stroke-dasharray="1,5" points="340,-146 340,-274 923,-274 923,-146 340,-146"/>
</g>
<g id="clust9" class="cluster">
<title>cluster_AppModule_imports</title>
<polygon fill="none" stroke="black" points="348,-154 348,-206 915,-206 915,-154 348,-154"/>
</g>
<g id="clust13" class="cluster">
<title>cluster_AuthModule</title>
<polygon fill="none" stroke="black" stroke-dasharray="1,5" points="194,-70 194,-138 476,-138 476,-70 194,-70"/>
</g>
<g id="clust18" class="cluster">
<title>cluster_AuthModule_providers</title>
<polygon fill="none" stroke="black" points="202,-78 202,-130 468,-130 468,-78 202,-78"/>
</g>
<g id="clust25" class="cluster">
<title>cluster_MicroModule</title>
<polygon fill="none" stroke="black" stroke-dasharray="1,5" points="484,-70 484,-138 644,-138 644,-70 484,-70"/>
</g>
<g id="clust30" class="cluster">
<title>cluster_MicroModule_providers</title>
<polygon fill="none" stroke="black" points="492,-78 492,-130 636,-130 636,-78 492,-78"/>
</g>
<g id="clust31" class="cluster">
<title>cluster_ProductsModule</title>
<polygon fill="none" stroke="black" stroke-dasharray="1,5" points="653,-70 653,-138 833,-138 833,-70 653,-70"/>
</g>
<g id="clust36" class="cluster">
<title>cluster_ProductsModule_providers</title>
<polygon fill="none" stroke="black" points="661,-78 661,-130 825,-130 825,-78 661,-78"/>
</g>
<g id="clust37" class="cluster">
<title>cluster_UsersModule</title>
<polygon fill="none" stroke="black" stroke-dasharray="1,5" points="931,-214 931,-282 1205,-282 1205,-214 931,-214"/>
</g>
<g id="clust40" class="cluster">
<title>cluster_UsersModule_exports</title>
<polygon fill="none" stroke="black" points="1087,-222 1087,-274 1197,-274 1197,-222 1087,-222"/>
</g>
<g id="clust42" class="cluster">
<title>cluster_UsersModule_providers</title>
<polygon fill="none" stroke="black" points="939,-222 939,-274 1079,-274 1079,-222 939,-222"/>
</g>
<!-- AnimalsService -->
<g id="node1" class="node">
<title>AnimalsService</title>
<ellipse fill="#fdb462" stroke="black" cx="97" cy="-104" rx="72.93" ry="18"/>
<text text-anchor="middle" x="97" y="-99.8" font-family="Times,serif" font-size="14.00">AnimalsService</text>
</g>
<!-- AnimalsModule -->
<g id="node2" class="node">
<title>AnimalsModule</title>
<polygon fill="#8dd3c7" stroke="black" points="164.49,-198 161.49,-202 140.49,-202 137.49,-198 57.51,-198 57.51,-162 164.49,-162 164.49,-198"/>
<text text-anchor="middle" x="111" y="-175.8" font-family="Times,serif" font-size="14.00">AnimalsModule</text>
</g>
<!-- AnimalsService&#45;&gt;AnimalsModule -->
<g id="edge1" class="edge">
<title>AnimalsService&#45;&gt;AnimalsModule</title>
<path fill="none" stroke="black" d="M111,-122.01C111,-122.01 111,-151.85 111,-151.85"/>
<polygon fill="black" stroke="black" points="107.5,-151.85 111,-161.85 114.5,-151.85 107.5,-151.85"/>
</g>
<!-- AppModule -->
<g id="node8" class="node">
<title>AppModule</title>
<polygon fill="#8dd3c7" stroke="black" points="606.66,-266 603.66,-270 582.66,-270 579.66,-266 523.34,-266 523.34,-230 606.66,-230 606.66,-266"/>
<text text-anchor="middle" x="565" y="-243.8" font-family="Times,serif" font-size="14.00">AppModule</text>
</g>
<!-- AnimalsModule&#45;&gt;AppModule -->
<g id="edge2" class="edge">
<title>AnimalsModule&#45;&gt;AppModule</title>
<path fill="none" stroke="black" d="M111,-198.29C111,-220.21 111,-254 111,-254 111,-254 513.1,-254 513.1,-254"/>
<polygon fill="black" stroke="black" points="513.1,-257.5 523.1,-254 513.1,-250.5 513.1,-257.5"/>
</g>
<!-- AuthModule -->
<g id="node3" class="node">
<title>AuthModule</title>
<polygon fill="#8dd3c7" stroke="black" points="443.55,-198 440.55,-202 419.55,-202 416.55,-198 356.45,-198 356.45,-162 443.55,-162 443.55,-198"/>
<text text-anchor="middle" x="400" y="-175.8" font-family="Times,serif" font-size="14.00">AuthModule</text>
</g>
<!-- AuthModule&#45;&gt;AppModule -->
<g id="edge3" class="edge">
<title>AuthModule&#45;&gt;AppModule</title>
<path fill="none" stroke="black" d="M400,-198.27C400,-216.56 400,-242 400,-242 400,-242 512.94,-242 512.94,-242"/>
<polygon fill="black" stroke="black" points="512.94,-245.5 522.94,-242 512.94,-238.5 512.94,-245.5"/>
</g>
<!-- HealthModule -->
<g id="node4" class="node">
<title>HealthModule</title>
<polygon fill="#8dd3c7" stroke="black" points="670.37,-198 667.37,-202 646.37,-202 643.37,-198 573.63,-198 573.63,-162 670.37,-162 670.37,-198"/>
<text text-anchor="middle" x="622" y="-175.8" font-family="Times,serif" font-size="14.00">HealthModule</text>
</g>
<!-- HealthModule&#45;&gt;AppModule -->
<g id="edge4" class="edge">
<title>HealthModule&#45;&gt;AppModule</title>
<path fill="none" stroke="black" d="M590.2,-198.22C590.2,-198.22 590.2,-219.73 590.2,-219.73"/>
<polygon fill="black" stroke="black" points="586.7,-219.73 590.2,-229.73 593.7,-219.73 586.7,-219.73"/>
</g>
<!-- MicroModule -->
<g id="node5" class="node">
<title>MicroModule</title>
<polygon fill="#8dd3c7" stroke="black" points="555.76,-198 552.76,-202 531.76,-202 528.76,-198 462.24,-198 462.24,-162 555.76,-162 555.76,-198"/>
<text text-anchor="middle" x="509" y="-175.8" font-family="Times,serif" font-size="14.00">MicroModule</text>
</g>
<!-- MicroModule&#45;&gt;AppModule -->
<g id="edge5" class="edge">
<title>MicroModule&#45;&gt;AppModule</title>
<path fill="none" stroke="black" d="M539.53,-198.22C539.53,-198.22 539.53,-219.73 539.53,-219.73"/>
<polygon fill="black" stroke="black" points="536.03,-219.73 539.53,-229.73 543.03,-219.73 536.03,-219.73"/>
</g>
<!-- ProductsModule -->
<g id="node6" class="node">
<title>ProductsModule</title>
<polygon fill="#8dd3c7" stroke="black" points="797.04,-198 794.04,-202 773.04,-202 770.04,-198 688.96,-198 688.96,-162 797.04,-162 797.04,-198"/>
<text text-anchor="middle" x="743" y="-175.8" font-family="Times,serif" font-size="14.00">ProductsModule</text>
</g>
<!-- ProductsModule&#45;&gt;AppModule -->
<g id="edge6" class="edge">
<title>ProductsModule&#45;&gt;AppModule</title>
<path fill="none" stroke="black" d="M743,-198.02C743,-215.37 743,-239 743,-239 743,-239 616.73,-239 616.73,-239"/>
<polygon fill="black" stroke="black" points="616.73,-235.5 606.73,-239 616.73,-242.5 616.73,-235.5"/>
</g>
<!-- UsersModule -->
<g id="node7" class="node">
<title>UsersModule</title>
<polygon fill="#8dd3c7" stroke="black" points="906.92,-198 903.92,-202 882.92,-202 879.92,-198 815.08,-198 815.08,-162 906.92,-162 906.92,-198"/>
<text text-anchor="middle" x="861" y="-175.8" font-family="Times,serif" font-size="14.00">UsersModule</text>
</g>
<!-- UsersModule&#45;&gt;AppModule -->
<g id="edge7" class="edge">
<title>UsersModule&#45;&gt;AppModule</title>
<path fill="none" stroke="black" d="M845.76,-198.22C845.76,-218.37 845.76,-248 845.76,-248 845.76,-248 616.73,-248 616.73,-248"/>
<polygon fill="black" stroke="black" points="616.73,-244.5 606.73,-248 616.73,-251.5 616.73,-244.5"/>
</g>
<!-- UsersService  -->
<g id="node13" class="node">
<title>UsersService </title>
<polygon fill="#fb8072" stroke="black" points="1188.85,-266 1095.15,-266 1095.15,-230 1188.85,-230 1188.85,-266"/>
<text text-anchor="middle" x="1142" y="-243.8" font-family="Times,serif" font-size="14.00">UsersService </text>
</g>
<!-- UsersModule&#45;&gt;UsersService  -->
<g id="edge12" class="edge">
<title>UsersModule&#45;&gt;UsersService </title>
<path fill="none" stroke="black" stroke-dasharray="5,2" d="M906.77,-180C986.4,-180 1142,-180 1142,-180 1142,-180 1142,-219.78 1142,-219.78"/>
<polygon fill="black" stroke="black" points="1138.5,-219.78 1142,-229.78 1145.5,-219.78 1138.5,-219.78"/>
</g>
<!-- AuthService -->
<g id="node9" class="node">
<title>AuthService</title>
<ellipse fill="#fdb462" stroke="black" cx="401" cy="-104" rx="59.11" ry="18"/>
<text text-anchor="middle" x="401" y="-99.8" font-family="Times,serif" font-size="14.00">AuthService</text>
</g>
<!-- AuthService&#45;&gt;AuthModule -->
<g id="edge8" class="edge">
<title>AuthService&#45;&gt;AuthModule</title>
<path fill="none" stroke="black" d="M400,-122.01C400,-122.01 400,-151.85 400,-151.85"/>
<polygon fill="black" stroke="black" points="396.5,-151.85 400,-161.85 403.5,-151.85 396.5,-151.85"/>
</g>
<!-- JwtStrategy -->
<g id="node10" class="node">
<title>JwtStrategy</title>
<ellipse fill="#fdb462" stroke="black" cx="267" cy="-104" rx="56.76" ry="18"/>
<text text-anchor="middle" x="267" y="-99.8" font-family="Times,serif" font-size="14.00">JwtStrategy</text>
</g>
<!-- JwtStrategy&#45;&gt;AuthModule -->
<g id="edge9" class="edge">
<title>JwtStrategy&#45;&gt;AuthModule</title>
<path fill="none" stroke="black" d="M267,-122.01C267,-144.49 267,-180 267,-180 267,-180 346.45,-180 346.45,-180"/>
<polygon fill="black" stroke="black" points="346.45,-183.5 356.45,-180 346.45,-176.5 346.45,-183.5"/>
</g>
<!-- MicroService -->
<g id="node11" class="node">
<title>MicroService</title>
<ellipse fill="#fdb462" stroke="black" cx="564" cy="-104" rx="63.68" ry="18"/>
<text text-anchor="middle" x="564" y="-99.8" font-family="Times,serif" font-size="14.00">MicroService</text>
</g>
<!-- MicroService&#45;&gt;MicroModule -->
<g id="edge10" class="edge">
<title>MicroService&#45;&gt;MicroModule</title>
<path fill="none" stroke="black" d="M528.15,-119.02C528.15,-119.02 528.15,-151.8 528.15,-151.8"/>
<polygon fill="black" stroke="black" points="524.65,-151.8 528.15,-161.8 531.65,-151.8 524.65,-151.8"/>
</g>
<!-- ProductsService -->
<g id="node12" class="node">
<title>ProductsService</title>
<ellipse fill="#fdb462" stroke="black" cx="743" cy="-104" rx="73.57" ry="18"/>
<text text-anchor="middle" x="743" y="-99.8" font-family="Times,serif" font-size="14.00">ProductsService</text>
</g>
<!-- ProductsService&#45;&gt;ProductsModule -->
<g id="edge11" class="edge">
<title>ProductsService&#45;&gt;ProductsModule</title>
<path fill="none" stroke="black" d="M743,-122.01C743,-122.01 743,-151.85 743,-151.85"/>
<polygon fill="black" stroke="black" points="739.5,-151.85 743,-161.85 746.5,-151.85 739.5,-151.85"/>
</g>
<!-- UsersService -->
<g id="node14" class="node">
<title>UsersService</title>
<ellipse fill="#fdb462" stroke="black" cx="1009" cy="-248" rx="61.95" ry="18"/>
<text text-anchor="middle" x="1009" y="-243.8" font-family="Times,serif" font-size="14.00">UsersService</text>
</g>
<!-- UsersService&#45;&gt;UsersModule -->
<g id="edge13" class="edge">
<title>UsersService&#45;&gt;UsersModule</title>
<path fill="none" stroke="black" d="M955,-257C918.24,-257 876.24,-257 876.24,-257 876.24,-257 876.24,-208.25 876.24,-208.25"/>
<polygon fill="black" stroke="black" points="879.74,-208.25 876.24,-198.25 872.74,-208.25 879.74,-208.25"/>
</g>
</g>
</svg>
